<?xml version="1.0" encoding="utf-8"?>
<!-- Generator: Adobe Illustrator 25.1.0, SVG Export Plug-In . SVG Version: 6.00 Build 0)  -->
<svg version="1.1" id="Layer_1" xmlns="http://www.w3.org/2000/svg" xmlns:xlink="http://www.w3.org/1999/xlink" x="0px" y="0px"
	 viewBox="0 0 278 317.96" style="enable-background:new 0 0 278 317.96;" xml:space="preserve">
<style type="text/css">
	.st0{fill:#FFED00;}
</style>
<g>
	<path class="st0" d="M135.44,109.67c0,18.45-0.06,36.9,0.06,55.36c0.02,3.19-0.75,5.26-3.78,6.89c-5.69,3.07-8.12,9.69-6.39,15.82
		c1.79,6.31,7.5,10.67,13.83,10.57c6.3-0.1,11.76-4.37,13.52-10.58c1.74-6.12-0.7-12.74-6.4-15.81c-3.03-1.64-3.77-3.71-3.77-6.9
		C142.6,128.01,142.57,91,142.57,54c0-0.92-0.25-2,0.13-2.73c0.61-1.15,1.5-2.64,2.56-2.92c1.08-0.29,2.66,0.48,3.73,1.2
		c0.75,0.5,1.07,1.7,1.52,2.61c21.97,43.92,43.91,87.85,65.95,131.74c1.34,2.67,1.32,4.83-0.02,7.47
		c-8.02,15.78-15.94,31.61-23.77,47.49c-0.97,1.98-2.08,2.57-4.2,2.57c-33.01-0.06-66.03-0.07-99.04,0.01
		c-2.2,0.01-3.2-0.75-4.14-2.66c-7.88-15.96-15.84-31.88-23.9-47.75c-1.25-2.46-1.18-4.47,0.04-6.9
		c22.15-44.15,44.24-88.34,66.34-132.51c0.36-0.73,0.6-1.74,1.21-2.08c1.15-0.65,2.67-1.47,3.75-1.18c1.06,0.29,2.34,1.79,2.51,2.91
		c0.39,2.61,0.18,5.31,0.18,7.98C135.44,76.05,135.44,92.86,135.44,109.67z"/>
	<path class="st0" d="M239.54,23.12c-19.34,0-38.6,0-58.19,0c46.81,20.47,72.04,55.98,76.14,107.08c1.77,0,3.77-0.04,5.78,0.01
		c3.3,0.09,4.68,1.39,4.71,4.72c0.07,6.46,0.07,12.92,0,19.37c-0.04,3.44-1.29,4.66-4.63,4.67c-6.56,0.03-13.12,0.03-19.68,0
		c-3.3-0.01-4.42-1.11-4.44-4.41c-0.04-6.66-0.04-13.33,0-19.99c0.02-3.03,1.25-4.23,4.3-4.35c1.93-0.08,3.87-0.01,6.25-0.01
		c-1.05-25.85-9.54-48.57-26.13-68.07c-18.33-21.54-41.72-34.04-70.3-38.14c0,2.09-0.01,3.78,0,5.47c0.01,2.72-1.27,4.3-4.05,4.32
		c-6.87,0.04-13.74,0.04-20.61,0c-2.78-0.02-4.08-1.57-4.06-4.3c0.01-1.63,0-3.25,0-5.4c-23.55,3.1-43.81,12.4-60.92,28.3
		c-22.45,20.86-34,46.82-35.6,77.83c2.3,0,4.31-0.06,6.32,0.01c3.06,0.12,4.3,1.33,4.32,4.34c0.05,6.76,0.01,13.53,0.02,20.3
		c0,2.78-1.33,4.14-4.13,4.13c-6.77-0.02-13.53-0.05-20.3,0.01c-2.84,0.03-4.26-1.42-4.3-4.07c-0.09-6.87-0.09-13.74,0-20.6
		c0.04-2.69,1.67-4.08,4.36-4.12c2.04-0.03,4.07-0.01,6.4-0.01c0.98-23.85,8-45.55,21.77-64.88C56.31,46.05,74.34,32.2,97.24,23.26
		c-20.16,0-39.41,0-58.7,0c-4.14,8.42-10.1,11.87-17.6,10.13C14.76,31.97,10,25.92,9.96,19.47c-0.04-6.52,4.82-12.66,11.17-14.1
		c7.32-1.66,13.31,1.84,17.42,10.21c28.56,0,57.13,0,86.11,0c0-2.25-0.03-4.38,0.01-6.5c0.05-2.6,1.37-3.98,4.01-3.98
		c6.87-0.01,13.74,0,20.61,0c2.63,0,4,1.34,4.05,3.95c0.04,2.12,0.01,4.25,0.01,6.67c1.39,0,2.39,0,3.39,0
		c26.65,0,53.31-0.02,79.96,0.05c2.11,0.01,3.11-0.57,4.02-2.59c2.74-6.1,9.61-9.27,16.13-7.81c6.34,1.42,11.22,7.55,11.2,14.07
		c-0.02,6.45-4.77,12.5-10.95,13.96c-6.67,1.57-13.51-1.64-16.47-7.75C240.23,24.84,239.91,23.99,239.54,23.12z"/>
	<path class="st0" d="M138.72,277.08c-19.67,0-39.33,0-59,0c-4.21,0-5.25-1.03-5.26-5.22c-0.02-6.14-0.02-12.29,0-18.43
		c0.01-3.73,1.28-5.11,4.89-5.11c39.74-0.02,79.49-0.02,119.23,0c3.65,0,4.94,1.36,4.96,5.05c0.03,6.14,0.02,12.29,0,18.43
		c-0.01,4.24-1.04,5.28-5.2,5.28C178.47,277.08,158.6,277.08,138.72,277.08z"/>
	<path class="st0" d="M192.64,284.37c0,8.59,0.12,16.97-0.14,25.34c-0.03,1.07-1.9,2.26-3.13,3.05c-0.66,0.43-1.8,0.14-2.72,0.14
		c-31.77,0-63.54,0.01-95.31,0c-5.41,0-6.05-0.64-6.06-5.98c-0.01-7.45,0-14.9,0-22.55C121.15,284.37,156.67,284.37,192.64,284.37z"
		/>
</g>
</svg>
