<?xml version="1.0" encoding="utf-8"?>
<!-- Generator: Adobe Illustrator 25.1.0, SVG Export Plug-In . SVG Version: 6.00 Build 0)  -->
<svg version="1.1" id="Layer_1" xmlns="http://www.w3.org/2000/svg" xmlns:xlink="http://www.w3.org/1999/xlink" x="0px" y="0px"
	 viewBox="0 0 367.72 333" style="enable-background:new 0 0 367.72 333;" xml:space="preserve">
<style type="text/css">
	.st0{fill:#F9B233;}
</style>
<g>
	<path class="st0" d="M77.17,64.57c18.19-7.45,36.58-12.29,56.03-12.86c16.7-0.5,32.99,1.74,48.62,7.66c4.29,1.62,7,1.21,10.14-2.32
		c9.6-10.81,19.48-21.38,29.53-31.77c1.8-1.86,6.43-4.03,7.23-3.3c3.8,3.5-0.59,5.78-2.52,7.91
		c-10.25,11.31-20.74,22.41-31.31,33.77c10.18,6.76,20.05,13.31,30.63,20.33c8.45-9.08,17.12-18.71,26.2-27.94
		c2.32-2.36,4.42-8.78,8.84-4.57c3.83,3.65-1.82,6.33-4,8.77c-8.53,9.54-17.37,18.8-26.15,28.23c7.4,9.53,14.67,18.88,22.33,28.75
		c1.32-1.26,2.82-2.55,4.16-3.99c20.12-21.63,40.16-43.33,60.43-64.81c1.88-2,6.82-4.33,7.61-3.59c3.72,3.48-0.6,5.7-2.6,7.87
		c-20.87,22.62-41.83,45.16-62.81,67.67c-2.2,2.37-3.85,4.22-2.14,7.97c15.4,33.8,16.34,68.17,3.55,102.99
		c-0.41,1.11-0.68,2.28-0.2,3.95c6.42-6.86,12.87-13.7,19.27-20.58c24.76-26.62,49.5-53.25,74.25-79.88
		c0.98-1.06,1.82-2.55,3.04-3.03c1.62-0.64,3.56-0.48,5.36-0.67c-0.17,1.64,0.22,3.67-0.61,4.83c-2.02,2.84-4.58,5.3-6.98,7.87
		c-37.32,40.04-74.98,79.78-111.83,120.25c-15.8,17.36-32.79,32.45-54.6,41.7c-54.53,23.13-118.96,6.29-155.57-40.8
		C-3.43,218.06-4.67,151.38,31.9,104.99C49.62,82.51,70.23,62.3,89.58,41.11c6.41-7.02,12.8-14.06,19.54-20.75
		c1.84-1.83,6.5-3.98,7.17-3.3c3.57,3.59-0.7,5.73-2.69,7.91C102.89,36.72,92,48.32,81.19,59.98
		C79.81,61.47,78.51,63.04,77.17,64.57z M250.4,130.3c-7.87,8.43-15.2,16.52-22.83,24.33c-3.04,3.11-3.85,5.95-2.96,10.4
		c5.33,26.5,0.24,50.89-16.05,72.66c-24.84,33.21-69.94,44.81-107.78,27.81C62.57,248.33,41,206.45,49.57,166.08
		c8.83-41.59,44.69-72.4,86.43-71.21c15.1,0.43,26.07-2,34.43-14.6c0.94-1.42,4.03-1.41,6.12-2.06c-0.49,2.27-0.32,5.06-1.6,6.72
		c-3.35,4.33-7.34,8.17-10.94,12.06c11.11,6.18,21.63,12.03,32.6,18.13c7.67-8.25,15.58-16.77,23.49-25.28
		c-42.07-38.41-113.73-45.22-164.16-1.19C3.96,134.01-2.72,208.75,39.36,262.07c40.61,51.47,115.88,62.55,169.82,24.66
		C266.16,246.69,273.97,176.16,250.4,130.3z M57.09,201.91c8.41-9.06,16.07-17.33,23.76-25.58c4.36-4.68,8.64-9.46,13.26-13.88
		c0.97-0.93,3.24-0.51,4.91-0.71c0,1.67,0.37,3.47-0.12,4.98c-0.4,1.25-1.81,2.19-2.79,3.25c-11.1,11.95-22.12,23.98-33.37,35.78
		c-2.93,3.07-3.64,5.66-1.93,9.75c15.7,37.52,56.4,58.27,95.9,48.66c39.52-9.61,66.41-46.72,63.01-87.08
		c-0.3-3.51-1.14-6.98-1.73-10.47c-0.62-0.26-1.25-0.52-1.87-0.78c-0.62,1.09-1.05,2.36-1.88,3.26
		c-13.34,14.38-26.72,28.72-40.11,43.05c-1.12,1.2-2.17,2.67-3.58,3.33c-1.05,0.49-3.04,0.33-3.83-0.39
		c-0.73-0.67-0.95-2.72-0.47-3.72c0.77-1.62,2.24-2.92,3.5-4.28c14.04-15.14,28.01-30.34,42.22-45.31c3.03-3.19,3.48-5.85,1.71-9.85
		c-9.61-21.65-25.31-36.73-47.27-45.62c-6.01-2.43-10.17-2.03-14.35,3.35c-4.41,5.68-9.63,10.77-14.83,15.78
		c-1.01,0.97-3.52,0.39-5.34,0.52c0.19-1.67-0.03-3.53,0.66-4.94c0.79-1.6,2.4-2.8,3.65-4.17c4.24-4.61,8.48-9.21,13.15-14.28
		C93.49,93.12,43.62,145.24,57.09,201.91z M226.02,93.23c-9.24,9.95-17.27,18.6-24.53,26.42c7.11,10.88,13.58,20.78,20.37,31.18
		c7.83-8.4,15.85-16.89,23.66-25.57c0.79-0.88,1.03-3.35,0.38-4.28C239.62,111.92,233.1,103.04,226.02,93.23z"/>
	<path class="st0" d="M170.03,152.48c-1.11,1.5-1.95,2.89-3.03,4.06c-11.34,12.26-22.64,24.57-34.21,36.61
		c-1.42,1.47-4.35,1.49-6.57,2.19c0.57-2.14,0.49-4.86,1.81-6.32c11.34-12.54,22.89-24.9,34.53-37.16c1.21-1.27,3.36-1.83,5.18-2.2
		C168.24,149.55,169.12,151.31,170.03,152.48z"/>
</g>
</svg>
