<?xml version="1.0" encoding="utf-8"?>
<!-- Generator: Adobe Illustrator 25.1.0, SVG Export Plug-In . SVG Version: 6.00 Build 0)  -->
<svg version="1.1" id="Layer_1" xmlns="http://www.w3.org/2000/svg" xmlns:xlink="http://www.w3.org/1999/xlink" x="0px" y="0px"
	 viewBox="0 0 278 317.96" style="enable-background:new 0 0 278 317.96;" xml:space="preserve">
<style type="text/css">
	.st0{fill:#3AAA35;}
</style>
<g>
	<path class="st0" d="M268.17,141.8c-0.39-0.13-0.82-0.14-1.01-0.36c-1.46-1.58-3.24-2.05-5.35-1.96c-2.75,0.12-5.51,0.03-8.09,0.03
		c-1.66-0.97-1.16-2.41-1.16-3.66c-0.02-21.32-0.03-42.63,0.01-63.95c0-1.54-0.24-2.96-0.74-4.39c-1.51-4.26-4.39-7.1-8.78-8.17
		c-3.09-0.74-6.27-0.85-9.45-0.8c-1.44,0.01-2.7,0.37-3.51,0.72c-3.68,4.6-6.23,9.47-10.11,13.64h16.9
		c0.47,0.47,0.81,0.81,1.21,1.21c0,20.65-0.02,41.35,0.05,62.06c0,1.28-0.74,2.12-1.04,3.34h-3.53c-18.43,0-36.85,0.03-55.27-0.05
		c-1.58-0.01-2.93,0.54-4.4,0.76c-1.23,0.18-1.55,1.81-2.9,1.71c-0.35,1.09-0.67,2.19-1.55,3.01v49.87c-0.59,0.58-1.2,1.16-1.86,1.8
		c-32.56,0-65.19-0.01-97.83,0.04c-1.35,0-2.41-0.58-3.56-1.03c-0.09-1.02-1.51-1.96-0.76-2.86c1.11-1.34,0.58-2.74,0.63-4.09
		c0.12-3.01,0.04-6.02,0.04-9.07c-0.15-0.14-0.43-0.28-0.49-0.48c-1.27-3.89-4.23-4.96-7.97-4.93c-6.97,0.06-13.94,0.01-20.61,0.01
		c-1.52-0.74-1.28-1.89-1.28-2.96V73.76c0.82,0.31,1.33-0.16,1.8-0.73h145.59c0.84,0,1.72,0.15,2.52-0.04
		c1.18-0.28,2.48-0.57,3.43-1.26c5.09-3.67,9.07-8.51,14.03-13.16h-4.18c-53.83,0-107.67,0-161.5,0.01c-1.85,0-3.65,0.22-5.5,0.61
		c-4.1,0.84-6.84,3.13-8.78,6.59c-1.29,2.32-1.86,4.86-1.86,7.54c0.01,32.16,0.01,64.31,0.01,96.47c0,0.85-0.09,1.7,0.02,2.53
		c0.13,0.91-0.53,1.25-1.09,1.88c-2.05,0-4.21,0.03-6.36-0.01c-1.46-0.03-2.65,0.42-3.76,1.4c-2.02,1.78-2.54,4.02-2.54,6.55
		c0.01,27.46-0.01,54.92,0.03,82.37c0.01,3.52-0.57,7.1,0.91,10.71c1.39,1.21,2.59,3.04,4.69,3.75c14.95,0,29.88-0.04,44.82,0.04
		c2.44,0.01,4.29-0.72,5.85-2.49c0.48-0.54,1.03-1.02,1.21-1.2c1.41-3.19,1.01-6.16,1.02-9.08c0.02-11.07,0.01-22.14,0.01-33.15
		c1.23-1.32,2.63-1.84,4.39-1.84c13.85,0.04,27.69,0.02,41.47,0.02c0.9,0.65,1.37,1.41,1.08,2.6c-7.36,6.56-14.81,13.17-21.56,20.07
		v10.51h76.77c1.69,1.29,1.34,2.8,0.92,4.29c-0.71,2.44,0.57,6.53,2.68,7.89c2.2,1.42,4.52,2.39,7.34,2.38
		c19.86-0.09,39.74-0.05,59.61-0.05c7.47,0,14.94,0.04,22.4-0.02c3.01-0.02,5.58-1.21,7.56-3.55c0.81-0.96,0.78-2.38,1.74-3.2
		V145.52C269.12,144.53,268.9,142.95,268.17,141.8z M27.15,178.03c1.44-1.11,2.99-1.68,4.78-1.67c3.71,0.02,7.44,0.01,11.15,0.01
		c0.83,0.58,1.99,0.63,2.69,1.92v2.87c-0.52,0.52-1.11,1.11-1.71,1.71c-4.19,0-8.39-0.03-12.58,0.01c-1.53,0.01-3.01-0.01-4.32-1.02
		V178.03z M43.71,268.81c-0.82,2.3-2.44,3.52-3.89,5.03h-5.07c-1.61-0.76-3.27-1.73-3.99-3.76v-5.09c0.92-1.57,2.29-2.86,3.96-4
		c4.04-0.69,7.15,0.69,8.98,4.93V268.81z M60.7,256.57H12.95c-0.5-0.56-1.05-1.19-1.68-1.88v-68.64l0.92-0.92h48.68
		c0.28,0.49,0.77,1.32,1.63,2.8c0,20.52-0.01,42.06,0.02,63.6C62.52,253.33,62.33,254.98,60.7,256.57z M147.08,215.84
		c-1.92,5.27-5.24,8.93-10.6,8.81c-6.39-0.15-10.02-4.19-10.91-11.03c0.88-0.85,0.45-2.21,0.51-3.36c3.29-5.58,7.68-8.83,14.29-6.37
		C143.77,205.17,147.71,208.45,147.08,215.84z M169.46,239.13c-4.08,0.2-5.44-3.48-7.96-5.2v-2.47h6.32
		C170.14,233.48,169.3,236.29,169.46,239.13z M223.23,276.78c-1.76,1.12-3.82,0.8-5.45,0.71c-2.4-1-3.95-2.49-4.98-5.09v-4.33
		c1.89-3.32,4.39-5.38,8.2-4.86c3.71,0.92,5.41,3.58,6.11,7.4C226.44,272.71,225.6,275.27,223.23,276.78z M261.94,261.19
		c-0.69,0.59-2.22,0.45-3.74,0.45c-25.76-0.01-51.52-0.01-77.29,0.01c-1.42,0-2.74-0.2-4.24-1.06v-2.93
		c0-35.04-0.01-70.07,0.02-105.1c0-1.23-0.65-2.74,1.24-3.58h83.72c1.34,1.26,1.76,2.72,1.76,4.44
		c-0.03,34.56-0.03,69.11,0.01,103.66C263.42,258.43,263.06,259.55,261.94,261.19z"/>
	<path class="st0" d="M171,114.98c-2.3-2.3-4.4-4.4-6.7-6.7c1.88-2.84,3.75-5.94,5.88-8.85c3.41-4.67,6.85-9.29,10.63-13.71
		c6.16-7.21,13.07-13.66,19.83-20.24c3.51-3.42,7.51-6.42,11.68-9.15c2.19-1.43,4.19-3.22,6.34-4.76c3.18-2.28,6.29-4.68,9.32-7.15
		c1.63-1.33,2.94-3.01,4.82-4.09c1.32-0.76,2.55-1.6,3.46-1.38c1.03,0.61,1.54,0.91,1.98,1.17c-0.58,2.51-1.66,4.5-2.91,6.34
		c-3.15,4.65-6.58,9.1-9.86,13.65c-1.66,2.3-3.47,4.53-4.9,6.99c-1.44,2.48-3.37,4.59-5,6.92c-1.24,1.77-2.74,3.51-4.13,5.22
		c-1.74,2.14-3.96,3.92-5.23,6.46c-0.36,0.72-1.16,1.21-1.75,1.81c-2.72,2.72-5.46,5.44-8.17,8.18c-2.14,2.15-4.57,3.92-7.04,5.66
		c-1.51,1.07-2.87,2.39-4.27,3.6c-3.61,3.11-7.53,5.81-11.21,8.82C172.98,114.41,171.96,115.31,171,114.98z"/>
	<path class="st0" d="M137.9,143.14c-0.83-2.28,0.03-4.17,0.52-6.03c0.93-3.54,1.75-7.11,3.51-10.43c2.02-3.8,4.23-7.46,7.58-10.14
		c3.08-2.47,6.67-4.13,10.23-4.53c3.6,1.32,5.17,4.52,8.28,6.32c0.36,0.61-0.59,1.89,0.66,2.68c-0.2,0.24-0.46,0.45-0.59,0.72
		c-0.86,1.8-1.6,3.67-2.57,5.41c-1.68,3.02-4.24,5.28-6.98,7.3c-3.73,2.75-8.09,4.16-12.34,5.86c-1.75,0.7-3.6,1.26-5.19,2.2
		C139.95,143.11,139.03,143.03,137.9,143.14z"/>
</g>
</svg>
